<?xml version="1.0" standalone="no"?>
<!DOCTYPE svg PUBLIC "-//W3C//DTD SVG 20010904//EN"
 "http://www.w3.org/TR/2001/REC-SVG-20010904/DTD/svg10.dtd">
<svg version="1.0" xmlns="http://www.w3.org/2000/svg"
 width="944.000000pt" height="944.000000pt" viewBox="0 0 944.000000 944.000000"
 preserveAspectRatio="xMidYMid meet">
<metadata>
Created by potrace 1.14, written by Peter Selinger 2001-2017
</metadata>
<g transform="translate(0.000000,944.000000) scale(0.100000,-0.100000)"
fill="#000000" stroke="none">
<path d="M0 4735 l0 -3905 2868 0 2868 0 0 481 c-1 376 2 483 12 491 9 8 12 1
12 -33 0 -24 1 -65 2 -92 2 -26 1 -47 -2 -47 -3 0 -5 -11 -5 -25 0 -14 2 -25
5 -25 3 0 5 -16 5 -35 0 -19 -2 -35 -5 -35 -3 0 -5 -11 -5 -25 0 -14 2 -25 5
-25 3 0 5 -16 5 -35 0 -19 -2 -35 -5 -35 -3 0 -5 -11 -5 -25 0 -14 2 -25 5
-25 3 0 5 -16 5 -35 0 -19 -2 -35 -5 -35 -3 0 -5 -11 -5 -25 0 -14 2 -25 5
-25 3 0 5 -16 5 -35 0 -19 -2 -35 -5 -35 -3 0 -5 -11 -5 -25 0 -14 2 -25 5
-25 5 0 4 -82 0 -105 -2 -6 -1 -14 0 -20 4 -21 1 -95 -4 -104 -4 -5 -2 -12 2
-15 5 -3 7 -17 4 -31 l-4 -25 1841 0 1841 0 0 3920 0 3920 -1838 0 c-1011 0
-1842 -3 -1845 -6 -3 -4 -2 -15 4 -25 6 -12 6 -19 0 -19 -6 0 -6 -11 -1 -29 4
-15 4 -34 -1 -42 -4 -7 -4 -19 2 -25 7 -8 7 -14 0 -18 -6 -4 -7 -16 -2 -29 5
-12 5 -31 1 -42 -4 -11 -3 -25 2 -32 5 -7 5 -13 0 -17 -5 -3 -6 -23 -2 -46 4
-22 5 -40 1 -40 -3 0 -6 -11 -6 -25 0 -14 2 -25 5 -25 3 0 3 -27 0 -60 -3 -33
-2 -60 2 -60 5 0 4 -9 -2 -19 -6 -12 -6 -22 -1 -25 5 -3 5 -21 1 -40 -4 -18
-3 -41 2 -50 6 -10 5 -16 -1 -16 -6 0 -6 -11 -1 -29 4 -15 4 -34 0 -42 -5 -7
-4 -21 1 -31 6 -12 6 -18 0 -18 -6 0 -6 -11 -1 -29 4 -15 4 -34 0 -42 -5 -7
-4 -21 1 -30 5 -11 5 -20 0 -23 -5 -3 -7 -15 -4 -26 4 -14 1 -19 -8 -15 -12 4
-14 88 -13 490 l0 485 -2868 0 -2868 0 0 -3905z m5749 2503 c-1 -1 3 -13 10
-25 7 -13 8 -23 2 -23 -6 0 -6 -11 -1 -29 4 -15 4 -34 -1 -42 -4 -7 -4 -19 2
-25 6 -7 6 -15 1 -18 -5 -3 -6 -23 -2 -46 4 -22 5 -40 1 -40 -3 0 -6 -11 -6
-25 0 -14 2 -25 5 -25 3 0 3 -27 0 -60 -3 -33 -2 -60 2 -60 5 0 4 -9 -2 -19
-6 -12 -6 -22 -1 -25 5 -3 5 -21 1 -40 -4 -18 -3 -41 2 -50 6 -10 5 -16 -1
-16 -6 0 -6 -11 -1 -29 4 -15 4 -34 0 -42 -5 -7 -4 -21 1 -31 6 -12 6 -18 0
-18 -6 0 -6 -11 -1 -30 5 -17 5 -32 0 -35 -5 -3 -5 -16 0 -30 7 -19 6 -25 -4
-25 -8 0 -16 6 -18 13 -3 10 -2 771 1 801 1 5 4 7 7 4 3 -4 5 -8 3 -10z m11
-1482 c4 -21 4 -39 -1 -42 -5 -3 -6 -10 -3 -16 9 -14 8 -134 -1 -148 -3 -5 -1
-10 5 -10 7 0 8 -6 0 -19 -6 -12 -6 -22 -1 -25 5 -3 5 -21 1 -40 -4 -18 -3
-41 2 -50 6 -10 5 -16 -1 -16 -6 0 -6 -11 -1 -29 4 -15 4 -34 0 -42 -5 -7 -4
-21 1 -31 6 -12 6 -18 0 -18 -6 0 -6 -11 -1 -30 5 -16 5 -32 1 -35 -5 -2 -6
-17 -3 -32 4 -23 3 -26 -9 -16 -12 9 -14 65 -12 320 0 169 2 312 2 317 2 18
13 -3 21 -38z m2 -1051 c3 -14 1 -28 -4 -31 -4 -3 -6 -10 -2 -15 5 -9 8 -83 4
-104 -1 -5 -2 -14 0 -20 4 -23 5 -105 0 -105 -3 0 -5 -11 -5 -25 0 -14 2 -25
5 -25 4 0 4 -16 2 -35 -2 -19 -8 -35 -13 -35 -11 0 -11 -17 -12 218 -2 145 1
202 9 202 7 0 14 -11 16 -25z m-1 -827 c4 -73 3 -98 -3 -98 -4 0 -3 -13 2 -29
4 -15 4 -34 0 -40 -4 -7 -5 -27 -3 -44 7 -49 7 -106 1 -112 -3 -3 -2 -23 2
-45 5 -28 3 -40 -6 -44 -7 -3 -14 1 -16 7 -3 10 -2 406 1 415 3 8 21 0 22 -10z
m-4 -841 c-3 -8 -2 -20 3 -27 4 -7 4 -26 0 -41 -5 -18 -5 -29 1 -29 6 0 6 -6
0 -18 -5 -10 -6 -24 -1 -31 4 -8 4 -27 0 -42 -5 -18 -5 -29 1 -29 6 0 6 -6 0
-18 -5 -10 -6 -24 -1 -31 4 -8 4 -27 0 -42 -5 -18 -5 -29 1 -29 6 0 6 -6 0
-18 -5 -10 -6 -24 -1 -31 4 -8 4 -27 0 -42 -5 -18 -5 -29 1 -29 6 0 6 -6 0
-18 -5 -10 -6 -24 -1 -31 4 -8 4 -27 0 -42 -5 -16 -5 -29 -1 -29 4 0 5 -20 1
-45 -4 -25 -4 -45 -1 -45 3 0 6 -16 6 -35 0 -19 -3 -35 -7 -35 -4 0 -4 -10 1
-23 9 -23 -4 -62 -17 -53 -5 3 -8 722 -3 809 1 9 6 17 12 17 6 0 9 -6 6 -13z"/>
</g>
</svg>
